<mxfile host="app.diagrams.net" modified="2024-07-22T20:58:57.153Z" agent="Mozilla/5.0 (Windows NT 10.0; Win64; x64) AppleWebKit/537.36 (KHTML, like Gecko) Chrome/126.0.0.0 Safari/537.36" etag="Iejw3uLkfNGCHqsUe-nd" version="24.7.3" type="github">
  <diagram name="PÃ¡gina-1" id="EKfypellKAExrIpKotNy">
    <mxGraphModel dx="2261" dy="738" grid="1" gridSize="10" guides="1" tooltips="1" connect="1" arrows="1" fold="1" page="1" pageScale="1" pageWidth="827" pageHeight="1169" math="0" shadow="0">
      <root>
        <mxCell id="0" />
        <mxCell id="1" parent="0" />
        <mxCell id="NeD9bfuKWAq4XxlpSXdW-1" value="Arranque" style="ellipse;whiteSpace=wrap;html=1;" vertex="1" parent="1">
          <mxGeometry x="160" y="40" width="90" height="50" as="geometry" />
        </mxCell>
        <mxCell id="NeD9bfuKWAq4XxlpSXdW-2" value="Lectura de BLE" style="shape=process;whiteSpace=wrap;html=1;backgroundOutline=1;" vertex="1" parent="1">
          <mxGeometry x="-20" y="200" width="120" height="40" as="geometry" />
        </mxCell>
        <mxCell id="NeD9bfuKWAq4XxlpSXdW-3" value="Lectura de BLE" style="shape=process;whiteSpace=wrap;html=1;backgroundOutline=1;" vertex="1" parent="1">
          <mxGeometry x="150" y="200" width="120" height="40" as="geometry" />
        </mxCell>
        <mxCell id="NeD9bfuKWAq4XxlpSXdW-4" value="Lectura de BLE" style="shape=process;whiteSpace=wrap;html=1;backgroundOutline=1;" vertex="1" parent="1">
          <mxGeometry x="340" y="200" width="120" height="40" as="geometry" />
        </mxCell>
      </root>
    </mxGraphModel>
  </diagram>
</mxfile>
